<svg width="87" height="72" viewBox="0 0 67 52" fill="none" xmlns="http://www.w3.org/2000/svg">
<path d="M38.1978 43.6074L32.7372 44.1027" stroke="#6FC958" stroke-width="3" stroke-linecap="round"/>
<path d="M33.0592 30.0614L39.612 29.4671" stroke="#6FC958" stroke-width="3" stroke-linecap="round"/>
<path d="M34.2628 36.9585L39.7234 36.4631" stroke="#6FC958" stroke-width="3" stroke-linecap="round"/>
<path d="M13.1069 17.0214C12.011 20.3407 6.72117 24.5635 3.43654 26.4474C2.56796 26.9457 1.97265 27.8442 2.001 28.829L2.37293 41.7366C2.38778 42.2553 2.5755 42.7549 2.90753 43.1597L6.57456 47.6307C7.08605 48.2542 7.87822 48.6733 8.67599 48.8464L8.71906 48.8558C11.8129 49.5276 20.227 51.3545 37.7344 49.8155C38.0626 49.7867 38.3945 49.6949 38.6723 49.5214C41.7517 47.5961 40.0007 45.0488 40.9335 43.3245C42.0012 41.3507 41.9561 39.474 41.5692 37.6257C41.4918 37.2559 41.4885 36.8735 41.5865 36.5084C42.1561 34.3833 41.8584 31.1769 41.5 29.5C41.1416 27.8231 65 29.3835 65 25C66 18.5 52.575 20.7169 42.5105 21.6578C37.814 21.5058 40.3169 21.5592 39.2304 21.6578L23.8328 23.0543C22.4945 23.1758 21.7319 22.2637 22.1192 21.0046C22.7309 19.0161 23.4462 15.7024 22.9759 10.7373C22.3518 4.15065 19.7353 2.02208 16.9597 2.00006C15.809 1.99089 15.082 3.10232 15.0544 4.22791C14.9715 7.61315 14.3086 13.3814 13.1069 17.0214Z" stroke="#6FC958" stroke-width="3" stroke-linecap="round"/>
</svg>
