<svg width="60" height="63" viewBox="0 0 60 63" fill="none" xmlns="http://www.w3.org/2000/svg">
<path d="M36.8417 23.1637C37.7424 25.9519 42.0902 29.4991 44.7899 31.0816C45.5038 31.5001 45.9931 32.2549 45.9698 33.0821L45.6641 43.9245C45.6519 44.3602 45.4976 44.7799 45.2247 45.1199L42.2107 48.8755C41.7903 49.3993 41.1392 49.7513 40.4835 49.8967L40.4481 49.9046C37.9052 50.4689 30.9895 52.0035 16.5999 50.7108C16.3301 50.6866 16.0573 50.6095 15.829 50.4637C13.298 48.8465 14.7372 46.7067 13.9705 45.2583C13.0929 43.6003 13.13 42.0239 13.448 40.4713C13.5116 40.1607 13.5143 39.8395 13.4338 39.5328C12.9656 37.7477 12.3797 36.0592 12.6743 34.6506C12.8145 33.9802 12.8901 33.2657 12.6767 32.6149C11.9947 30.5351 12.5543 29.2865 13.1455 28.2545C13.5914 27.4762 14.4773 26.9755 15.3703 27.0583L28.0259 28.2314C29.1258 28.3334 29.7526 27.5673 29.4343 26.5096C28.9315 24.8393 28.3436 22.0558 28.7302 17.8851C29.2431 12.3523 31.3937 10.5643 33.675 10.5458C34.6208 10.5381 35.2183 11.4717 35.241 12.4172C35.3091 15.2608 35.854 20.1061 36.8417 23.1637Z" stroke="#95FFF7" stroke-width="3" stroke-linecap="round"/>
<path d="M14.6319 45.0302L19.1201 45.4463" stroke="#95FFF7" stroke-width="3" stroke-linecap="round"/>
<path d="M18.8555 33.6516L13.4696 33.1524" stroke="#95FFF7" stroke-width="3" stroke-linecap="round"/>
<path d="M17.8662 39.4451L13.378 39.029" stroke="#95FFF7" stroke-width="3" stroke-linecap="round"/>
</svg>
